<?xml version="1.0" encoding="UTF-8"?>
<!DOCTYPE svg PUBLIC "-//W3C//DTD SVG 1.1//EN" "http://www.w3.org/Graphics/SVG/1.1/DTD/svg11.dtd">
<!-- Creator: CorelDRAW -->
<svg xmlns="http://www.w3.org/2000/svg" xml:space="preserve" width="1.201in" height="0.357008in" version="1.1" style="shape-rendering:geometricPrecision; text-rendering:geometricPrecision; image-rendering:optimizeQuality; fill-rule:evenodd; clip-rule:evenodd"
viewBox="0 0 7261.51 2158.54"
 xmlns:xlink="http://www.w3.org/1999/xlink"
 xmlns:xodm="http://www.corel.com/coreldraw/odm/2003">
 <defs>
  <style type="text/css">
   <![CDATA[
    .fil0 {fill:#F79956}
    .fil2 {fill:#F26B35}
    .fil1 {fill:#EF7F53}
    .fil6 {fill:#F79956;fill-rule:nonzero}
    .fil4 {fill:#F26B35;fill-rule:nonzero}
    .fil5 {fill:#EF7F53;fill-rule:nonzero}
    .fil3 {fill:black;fill-rule:nonzero}
   ]]>
  </style>
 </defs>
 <g id="Layer_x0020_1">
  <metadata id="CorelCorpID_0Corel-Layer"/>
  <rect class="fil0" x="6734.3" y="521.38" width="526.69" height="526.69"/>
  <rect class="fil1" x="6734.82" width="526.69" height="526.69"/>
  <rect class="fil2" x="6213.57" y="1.71" width="526.69" height="526.69"/>
  <polygon class="fil3" points="5902.19,2158.54 5528.68,1517.43 5868.24,997.5 5447.01,997.5 5187.74,1425.07 5187.74,640.06 4812.87,640.06 4812.87,2158.54 5187.74,2158.54 5187.74,1626.95 5460.15,2158.54 "/>
  <path class="fil4" d="M610 2158.54c353.7,0 610,-243.54 610,-579.77 0,-337.59 -256.3,-579.77 -610,-579.77 -355.06,0 -610,242.18 -610,579.77 0,336.23 254.94,579.77 610,579.77zm0 -336.59c-136.71,0 -234.8,-99.07 -234.8,-243.18 0,-144.11 98.1,-243.2 234.8,-243.2 136.71,0 234.8,100.12 234.8,243.2 0,144.11 -98.1,243.18 -234.8,243.18l0 0z"/>
  <path class="fil5" d="M2050 1002.76c-100.19,3.28 -224.64,13.95 -312.78,43.3l0 -43.35 -79.89 0 -263.01 0 0.6 1155.82 374.86 0 -0.6 -616.31c-0.12,-139.4 53.77,-206.93 170.32,-206.93 93.72,0 154.06,48.8 154.18,175.34l0.6 647.9 374.86 0 -0.6 -699.62c-0.21,-277.13 -165.94,-456.15 -418.54,-456.15l0 0z"/>
  <path class="fil6" d="M3222.29 999l-1.33 0 -15.23 0.17 -0.71 0.02 -15.71 0.52 -0.1 0 -1.43 0.07c-336.94,15.16 -575.48,252.44 -575.48,578.98 0,325.73 239.25,564.46 577.01,579.05l0.1 0 15.71 0.52 0.62 0.02 15.23 0.17 1.33 0 11.43 -0.12c282.62,-4.21 501.24,-164.77 573.18,-403.31l-16.26 0 -372.84 0 -27.54 0c-41.56,42.32 -99.98,66.84 -167.96,66.84 -106.26,0 -189.19,-59.84 -220.85,-154.18l441.71 0 363.96 0 18.97 0c4.09,-28.83 6.21,-58.53 6.21,-89 0,-337.59 -256.3,-579.77 -610,-579.77zm-208.71 461.2c37.87,-77.08 114.04,-124.64 208.71,-124.64 94.5,0 170.51,47.85 208.47,124.64l-417.19 0z"/>
  <path class="fil3" d="M6484.22 1830.02c-78.65,0 -125.95,-47.01 -125.95,-124.95l0 -414.57 263.68 0 0 -288.19 -263.68 0 0 -362.39 -86.67 0 -490.58 562.94 0 87.67 202.38 -0.02 0 0.02 4.4 0 0 548.97c25.99,199.86 166.2,319.04 382.55,319.04l257.63 0 0 -328.52 -143.78 0z"/>
  <path class="fil3" d="M4576.05 1830.02c-78.65,0 -125.95,-47.01 -125.95,-124.95l0 -414.57 263.68 0 0 -288.19 -263.68 0 0 -362.39 -86.67 0 -490.58 562.94 0 87.67 202.38 -0.02 0 0.02 4.4 0 0 548.97c25.99,199.86 166.2,319.04 382.55,319.04l257.63 0 0 -328.52 -143.78 0z"/>
  <polygon class="fil3" points="6829.35,2158.54 6829.35,1883.56 6748.92,1883.56 6748.92,1827.64 6964.29,1827.64 6964.29,1883.56 6883.88,1883.56 6883.88,2158.54 "/>
  <polygon id="_1" class="fil3" points="6998.95,2158.54 6998.95,1827.64 7080.67,1827.64 7129.97,2053.78 7178.65,1827.64 7260.99,1827.64 7260.99,2158.54 7210.17,2158.54 7210.17,1897.58 7156.15,2158.54 7103.86,2158.54 7049.8,1897.58 7049.8,2158.54 "/>
 </g>
</svg>
